Coordinates
version=1
nRows=10
nColumns=63
inDegrees=yes

Units are S.I. units (second, meters, Newtons, ...)
If the header above contains a line with 'inDegrees', this indicates whether rotational values are in degrees (yes) or radians (no).

endheader
time	pelvis_tilt	pelvis_list	pelvis_rotation	pelvis_tx	pelvis_ty	pelvis_tz	hip_flexion_r	hip_adduction_r	hip_rotation_r	knee_angle_r	knee_angle_r_beta	ankle_angle_r	subtalar_angle_r	mtp_angle_r	hip_flexion_l	hip_adduction_l	hip_rotation_l	knee_angle_l	knee_angle_l_beta	ankle_angle_l	subtalar_angle_l	mtp_angle_l	L5_S1_Flex_Ext	L5_S1_Lat_Bending	L5_S1_axial_rotation	L4_L5_Flex_Ext	L4_L5_Lat_Bending	L4_L5_axial_rotation	L3_L4_Flex_Ext	L3_L4_Lat_Bending	L3_L4_axial_rotation	L2_L3_Flex_Ext	L2_L3_Lat_Bending	L2_L3_axial_rotation	L1_L2_Flex_Ext	L1_L2_Lat_Bending	L1_L2_axial_rotation	L1_T12_Flex_Ext	L1_T12_Lat_Bending	L1_T12_axial_rotation	Abs_r3	Abs_r2	Abs_r1	Abs_t1	Abs_t2	neck_flexion	neck_bending	neck_rotation	arm_flex_r	arm_add_r	arm_rot_r	elbow_flex_r	pro_sup_r	wrist_flex_r	wrist_dev_r	arm_flex_l	arm_add_l	arm_rot_l	elbow_flex_l	pro_sup_l	wrist_flex_l	wrist_dev_l
      1.61702128	      6.10915139	    -20.38040940	     98.07012360	      0.09143788	      0.43575688	      0.81396282	     39.06638701	      8.25234139	     -7.03527031	     39.52752767	      0.68988550	     49.31636420	      2.45483147	      0.00000000	     40.47785368	    -12.01314037	     -8.42451749	     43.27461781	      0.75528456	     54.75070549	     12.11249034	      0.00000000	     -0.25658508	     -1.20742867	     -0.14758431	     -0.47650416	     -1.60588013	     -0.15680833	     -0.42154363	     -2.93574206	     -0.15680833	     -0.29325109	     -2.93574206	     -0.12913627	     -0.23826491	     -2.46218854	     -0.11991225	     -0.14661272	     -1.87030700	     -0.11068823	     -1.83276159	    -13.65867455	     -0.82081966	      0.00000000	      0.00000000	     -0.94646522	      6.75446282	      7.82624680	    -45.43162214	    -19.08587368	     12.61358071	     93.47638427	     89.00586487	    -10.62335594	    -20.22093554	     26.65274574	    -12.82495070	     -7.57697975	    131.16934426	     88.27433502	     -4.52870777	     -0.85621643
      1.63829787	      5.04935485	    -20.69971144	     98.72363545	      0.08178853	      0.43582324	      0.81424551	     39.39515373	      6.29882505	     -6.84971812	     40.12770377	      0.70036055	     49.40460478	      1.25011793	      0.00000000	     40.01770629	     -9.90059847	     -8.70169244	     42.17427333	      0.73607993	     54.73574381	     12.55443199	      0.00000000	     -0.21818709	     -1.04405913	     -0.54451771	     -0.40519525	     -1.38859864	     -0.57855007	     -0.35845957	     -2.53852536	     -0.57855007	     -0.24936603	     -2.53852536	     -0.47645300	     -0.20260853	     -2.12904537	     -0.44242064	     -0.12467210	     -1.61724759	     -0.40838828	     -1.55848857	    -11.81060567	     -3.02844415	      0.00000000	      0.00000000	     -1.19097866	      8.08134276	     10.74664633	    -42.49219223	    -20.33400467	     13.71140232	     95.49246778	     89.10451111	    -10.17565785	    -19.63123815	     14.11427646	    -13.79525718	    -12.60916634	    132.97684795	     88.14381285	     -5.83001927	      1.63193161
      1.65957447	      2.58550212	    -21.34613152	     98.91248201	      0.07438200	      0.43429211	      0.81599145	     40.44995462	      3.34325157	     -5.73222147	     41.58784024	      0.72584474	     49.98420897	     -0.03805163	      0.00000000	     39.61225688	     -6.69491017	     -9.59916720	     41.00997444	      0.71575908	     54.45241258	     12.58828188	      0.00000000	     -0.21971341	     -0.97733598	     -0.62659808	     -0.40802978	     -1.29985685	     -0.66576046	     -0.36096717	     -2.37629469	     -0.66576046	     -0.25111046	     -2.37629469	     -0.54827332	     -0.20402588	     -1.99298352	     -0.50911094	     -0.12554424	     -1.51389343	     -0.46994856	     -1.56939095	    -11.05582003	     -3.48495052	      0.00000000	      0.00000000	     -0.52854154	      9.73341880	     10.72306954	    -39.15810206	    -20.13294837	     14.07951754	    101.41475288	     89.17380741	     -8.82658016	    -17.04096832	     -1.68301220	    -14.44681037	    -17.48865572	    134.12153296	     88.33502499	     -5.29413214	      3.55720271
      1.68085106	     -0.99509783	    -22.08500625	     97.39786320	      0.06945465	      0.43208081	      0.81890584	     42.05107596	      0.46002945	     -2.83593716	     43.54345143	      0.75997660	     50.74748859	     -1.03314594	      0.00000000	     39.00734334	     -3.48393979	    -12.15451235	     39.76791636	      0.69408108	     54.06878960	     12.58355255	      0.00000000	     -0.26192516	     -0.95329692	      0.17402086	     -0.48642122	     -1.26788491	      0.18489716	     -0.43031685	     -2.31784613	      0.18489716	     -0.29935427	     -2.31784613	      0.15226825	     -0.24322371	     -1.94396308	      0.14139195	     -0.14966404	     -1.47665693	      0.13051564	     -1.87090526	    -10.78388543	      0.96785179	      0.00000000	      0.00000000	      0.85298969	     10.22759802	      6.13151024	    -35.89308914	    -17.30869087	     11.17665534	    110.26936011	     89.17280449	     -3.73113235	    -10.84303793	    -16.60291611	    -15.99671441	    -17.63310930	    130.05863859	     88.57995872	     -4.01081025	     -0.44172964
      1.70212766	     -3.43371001	    -22.83709166	     96.47059333	      0.06172206	      0.43037055	      0.82172608	     43.66754120	     -1.86145255	     -0.97311955	     44.88841070	      0.78345056	     51.53770501	     -1.12438534	      0.00000000	     38.89725001	     -0.86665061	    -13.74139446	     38.65996775	      0.67474373	     53.67450133	     12.51043035	      0.00000000	     -0.27727958	     -0.68950869	      1.31764522	     -0.51493591	     -0.91704656	      1.39999804	     -0.45554263	     -1.67647144	      1.39999804	     -0.31690284	     -1.67647144	      1.15293956	     -0.25748182	     -1.40604613	      1.07058674	     -0.15843755	     -1.06804897	      0.98823391	     -1.98058034	     -7.79986025	      7.32834739	      0.00000000	      0.00000000	      1.89821940	      8.21050263	      0.10145686	    -30.90619314	    -13.78104050	      4.44752519	    120.41498295	     89.00384065	      8.70007918	      2.00801385	    -27.76560188	    -19.63950207	    -11.66165595	    120.02161633	     88.70895944	     -6.84727769	    -11.81130855
      1.72340426	     -5.42626495	    -23.38524786	     95.35156757	      0.05357636	      0.43046753	      0.82272131	     44.81174374	     -3.62656372	      0.74624871	     45.49545202	      0.79404543	     52.30236076	     -0.57704778	      0.00000000	     38.39052684	      1.22003748	    -15.45518893	     37.13826726	      0.64818504	     53.15592378	     12.73277688	      0.00000000	     -0.27417387	     -0.32765150	      2.38451191	     -0.50916829	     -0.43577650	      2.53354390	     -0.45044025	     -0.79665186	      2.53354390	     -0.31335331	     -0.79665186	      2.08644792	     -0.25459785	     -0.66814694	      1.93741592	     -0.15666295	     -0.50753217	      1.78838393	     -1.95839653	     -3.70645931	     13.26193987	      0.00000000	      0.00000000	      2.36192367	      4.80696428	     -4.59591415	    -21.39149032	    -12.05917525	      0.44992468	    128.05694659	     88.64573630	     15.12533907	     11.51793234	    -35.00176379	    -24.69792776	     -3.79533923	    107.38033140	     88.63551613	    -10.38240370	    -21.87139049
      1.74468085	     -7.80209348	    -23.84254143	     94.05907848	      0.04690591	      0.43093046	      0.82236477	     45.83883344	     -5.60722872	      2.48414205	     45.95583630	      0.80208065	     53.26363063	      0.63031920	      0.00000000	     37.63864672	      3.49298315	    -17.52476637	     35.31082601	      0.61629018	     52.52527450	     13.36097955	      0.00000000	     -0.26319755	     -0.04288697	      3.09432363	     -0.48878417	     -0.05703967	      3.28771886	     -0.43240726	     -0.10427537	      3.28771886	     -0.30080848	     -0.10427537	      2.70753317	     -0.24440525	     -0.08745510	      2.51413795	     -0.15039108	     -0.06643191	      2.32074272	     -1.87999380	     -0.48514595	     17.20969972	      0.00000000	      0.00000000	      2.47694667	      1.25092660	     -7.90439988	     -8.44736849	    -11.55480488	      0.76998237	    130.56841612	     88.16709013	     14.96848983	     12.59389679	    -39.76481110	    -30.12753765	      4.26144819	     95.46797461	     88.71207155	    -14.19574816	    -23.86541148
      1.76595745	     -9.97503898	    -24.11537003	     92.72010578	      0.04092906	      0.43048801	      0.82195427	     46.76214162	     -7.37854356	      3.92529452	     46.42392560	      0.81025035	     54.25660494	      2.24468750	      0.00000000	     37.03872688	      5.39132957	    -19.70974291	     33.88976860	      0.59148804	     52.16237148	     14.39809820	      0.00000000	     -0.26900884	      0.21411125	      3.48048320	     -0.49957632	      0.28476796	      3.69801340	     -0.44195462	      0.52059009	      3.69801340	     -0.30745020	      0.52059009	      3.04542280	     -0.24980161	      0.43661566	      2.82789260	     -0.15371165	      0.33165832	      2.61036240	     -1.92150324	      2.42206926	     19.35740340	      0.00000000	      0.00000000	      2.30662335	     -2.30404152	     -9.11010642	      4.92012749	    -10.90593638	      3.72895825	    129.14509493	     87.93589134	     11.01418157	     10.53893823	    -42.37563398	    -34.34934843	     13.09100007	     84.49946237	     88.94915013	    -19.79133104	    -24.21559536
      1.78723404	    -11.81913800	    -24.59435310	     91.76476689	      0.03424389	      0.42851003	      0.82175023	     47.88440906	     -9.09083337	      5.00564694	     46.96957046	      0.81977365	     55.11511024	      3.52283927	      0.00000000	     37.08447067	      7.29918436	    -20.95803948	     32.90740669	      0.57434259	     51.98227486	     14.86806821	      0.00000000	     -0.24607609	      0.40524423	      3.62272876	     -0.45698791	      0.53897483	      3.84914930	     -0.40427841	      0.98531082	      3.84914930	     -0.28124037	      0.98531082	      3.16988766	     -0.22850626	      0.82637403	      2.94346712	     -0.14060788	      0.62772331	      2.71704657	     -1.75769692	      4.58420378	     20.14853053	      0.00000000	      0.00000000	      1.78018664	     -5.51738434	     -9.32136741	     14.87121601	     -9.10188870	      6.29433206	    126.87300125	     88.04738883	      6.93096710	      9.11329898	    -44.39573942	    -37.18013194	     21.04184428	     76.75317394	     89.18700258	    -28.55014609	    -24.27531475
      1.80851064	    -13.33680591	    -25.23938198	     90.88836492	      0.02740629	      0.42584317	      0.82136660	     49.11137570	    -10.69327848	      5.60332392	     47.46799332	      0.82847277	     55.82889682	      4.93875673	      0.00000000	     37.61980970	      8.93045153	    -21.74988345	     32.36489012	      0.56487389	     51.92068877	     14.98418719	      0.00000000	     -0.22315864	      0.51440026	      3.49700125	     -0.41442790	      0.68415234	      3.71556382	     -0.36662732	      1.25071279	      3.71556382	     -0.25504800	      1.25071279	      3.05987609	     -0.20722511	      1.04896501	      2.84131351	     -0.12751284	      0.79680600	      2.62275093	     -1.59399982	      5.81899859	     19.44927183	      0.00000000	      0.00000000	      1.10425032	     -7.98220109	     -7.29273343	     20.20687809	     -6.57223900	      8.21071480	    125.95090303	     88.27632373	      4.11184301	      8.23857456	    -48.35530134	    -38.17443597	     23.72913054	     73.29958166	     89.31120462	    -35.50530376	    -24.20272359
